{"title":"BLADE RUNNER.DEWSTRR","uid":4790203,"size":1267149666,"categoryP":"video","categoryS":"movies","magnet":"?xt=urn:btih:db0a1930fde1ae7f3bb9f4060c7bfe468b6a4598&amp;dn=BLADE+RUNNER.DEWSTRR&amp;tr=udp%3A%2F%2Ftracker.openbittorrent.com%3A80&amp;tr=udp%3A%2F%2Fopen.demonii.com%3A1337&amp;tr=udp%3A%2F%2Ftracker.coppersurfer.tk%3A6969&amp;tr=udp%3A%2F%2Fexodus.desync.com%3A6969","seeders":1,"leechers":1,"uploader":"dewstrr505","files":14,"time":1237689714,"description":"BLADE RUNNER DVDRIP\nThe Final Cut  Action  Sci-Fi  Thriller\n\nIn Los Angeles, November 2019, Rick Deckard (Harrison Ford) is called out of retirement when a fellow Blade Runner, Holden (Morgan Paull) is shot administering a Voight-Kampff test to Leon (Brion James), an escaped replicant. A reluctant Deckard is brought to his old boss Bryant (M. Emmet Walsh), who informs him that the recent escape of Nexus-6 replicants is the worst yet. He orders Deckard to eliminate the four replicants, a process referred to as &quot;retirement&quot;. \nRoy Batty (Rutger Hauer), the leader, is a &quot;combat model&quot;; Leon Kowalski (Brion James) is a nuclear fuel loader; Zhora (Joanna Cassidy) is an assassin built for martial arts; and Pris (Daryl Hannah) is a &quot;basic pleasure model&quot;. Bryant also explains that the Nexus-6 model has a four-year lifespan as a failsafe to prevent them from developing emotions and desire for independence.\n &lt;a href=&quot;\nhttp://www.imdb.com/title/tt0083658/&quot; rel=&quot;nofollow&quot; target=&quot;_NEW&quot;&gt;\nhttp://www.imdb.com/title/tt0083658/&lt;/a&gt;\n\nVideo\nFormat :     MPEG-4 Visual\nFormat settings, BVOP :     Yes\nFormat settings, QPel :     No\nFormat settings, GMC :     No warppoints\nFormat settings, Matrix :     Default\nCodec ID :     DX50\nCodec ID/Hint :     DivX 5\nDuration :     1h 57mn\nBit rate :     1 300 Kbps\nWidth :     720 pixels\nHeight :     304 pixels\nDisplay aspect ratio :     2.35\nFrame rate :     23.976 fps\nResolution :     24 bits\nColorimetry :     4:2:0\nScan type :     Progressive\nBits/(Pixel*Frame) :     0.248\nStream size :     1.07 GiB (90%)\nTitle :     Video\nWriting library :     DivX 6.8.2 (UTC 2008-05-17)\n\nAudio\nFormat :     MPEG Audio\nFormat version :     Version 1\nFormat profile :     Layer 3\nCodec ID :     55\nCodec ID/Hint :     MP3\nDuration :     1h 57mn\nBit rate mode :     Constant\nBit rate :     128 Kbps\nChannel(s) :     2 channels\nSampling rate :     48.0 KHz\nResolution :     16 bits\nStream size :     108 MiB (9%)\nAlignment :     Split accross interleaves\nInterleave, duration :     42 ms (1.00 video frame)\nInterleave, preload duration :     500 ms\nTitle :     Audio\nWriting library :     LAME3.92\n\nGeneral\nComplete name : BLADE RUNNER.DEWSTRRB R 1.sfv\nFile size :     1.46 KiB\n\nGeneral\nComplete name : BLADE\nFile size :     47.0 Bytes\n[IMG]http://i203.photobucket.com/albums/aa38/476352oop/MOVIES/BR1.jpg[/IMG]\n[IMG]http://i203.photobucket.com/albums/aa38/476352oop/MOVIES/BR2.jpg[/IMG]\n[IMG]http://i203.photobucket.com/albums/aa38/476352oop/MOVIES/BR3.jpg[/IMG]\n[IMG]http://i203.photobucket.com/albums/aa38/476352oop/MOVIES/BR4.jpg[/IMG]\n[IMG]http://i203.photobucket.com/albums/aa38/476352oop/MOVIES/BR5.jpg[/IMG]\n[IMG]http://i203.photobucket.com/albums/aa38/476352oop/MOVIES/BR6.jpg[/IMG]\n[IMG]http://i203.photobucket.com/albums/aa38/476352oop/MOVIES/BR7.jpg[/IMG]\n[IMG]http://i203.photobucket.com/albums/aa38/476352oop/MOVIES/BR8.jpg[/IMG]\n[IMG]http://i203.photobucket.com/albums/aa38/476352oop/MOVIES/BR9.jpg[/IMG]\n[IMG]http://i203.photobucket.com/albums/aa38/476352oop/MOVIES/BR10.jpg[/IMG]\nburned with windows [with a couple of other movies on a disk] and played on my philips divx ultra certified dvd player\nbe sure to set your dvd player on the correct aspect ratio\n","torrent":{"xt":"urn:btih:db0a1930fde1ae7f3bb9f4060c7bfe468b6a4598","amp;dn":"BLADE+RUNNER.DEWSTRR","amp;tr":["udp%3A%2F%2Ftracker.openbittorrent.com%3A80","udp%3A%2F%2Fopen.demonii.com%3A1337","udp%3A%2F%2Ftracker.coppersurfer.tk%3A6969","udp%3A%2F%2Fexodus.desync.com%3A6969"],"infoHash":"db0a1930fde1ae7f3bb9f4060c7bfe468b6a4598","infoHashBuffer":{"type":"Buffer","data":[219,10,25,48,253,225,174,127,59,185,244,6,12,123,254,70,139,106,69,152]},"announce":[],"urlList":[]}}